<svg width="128" height="128" xmlns="http://www.w3.org/2000/svg">

 <title/>
 <g>
  <title>background</title>
  <rect fill="none" id="canvas_background" height="402" width="582" y="-1" x="-1"/>
 </g>
 <g>
  <title>Layer 1</title>
  <path fill="#ffffff" id="svg_1" d="m64,32.29c0.23,0 22.92,0 37.9,1.08l0.66,0.06c2,0.18 4.16,0.39 6.28,2.58l0,0l0,0c1,1 2.14,4.54 2.53,7.07a156,156 0 0 1 1,16.71l0,8.24a156.82,156.82 0 0 1 -1,16.72c-0.37,2.47 -1.54,6.06 -2.52,7l0,0l0,0c-2.11,2.18 -4.32,2.39 -6.27,2.58l-0.68,0.07c-14.72,1 -36.89,1.1 -37.89,1.1c-1.15,0 -28,-0.27 -36.57,-1c-0.51,-0.08 -1,-0.15 -1.58,-0.21c-2.28,-0.27 -4.87,-0.58 -6.73,-2.51l0,0l0,0c-1,-1 -2.14,-4.53 -2.52,-7.05a156,156 0 0 1 -1,-16.71l0,-8.16a156.79,156.79 0 0 1 1,-16.71c0.39,-2.55 1.55,-6.09 2.53,-7.07l0,0l0,0c2.12,-2.19 4.33,-2.39 6.28,-2.58l0.66,-0.06c15,-1.07 37.67,-1.08 37.89,-1.08l0.03,0m0,-6.5l0,0s-23.09,0 -38.48,1.1c-2.15,0.25 -6.83,0.27 -11,4.59c-3.29,3.3 -4.37,10.79 -4.37,10.79a162.25,162.25 0 0 0 -1.15,17.52l0,8.24a162.19,162.19 0 0 0 1.1,17.59s1.07,7.49 4.37,10.78c4.19,4.32 9.68,4.19 12.13,4.65c8.8,0.83 37.4,1.09 37.4,1.09s23.11,0 38.51,-1.13c2.15,-0.25 6.84,-0.28 11,-4.6c3.29,-3.29 4.37,-10.78 4.37,-10.78a162.26,162.26 0 0 0 1.12,-17.59l0,-8.24a162.27,162.27 0 0 0 -1.1,-17.59s-1.07,-7.49 -4.37,-10.79c-4.18,-4.32 -8.87,-4.35 -11,-4.59c-15.42,-1.11 -38.53,-1.11 -38.53,-1.11l0,0.07z" class="cls-1"/>
  <polygon fill="#ffffff" id="svg_2" points="54.13 47.61 54.13 80.39 82.12 64 54.13 47.61" class="cls-1"/>
 </g>
</svg>