<svg width="32" height="32" xmlns="http://www.w3.org/2000/svg">
 <title/>

 <g>
  <title>background</title>
  <rect fill="none" id="canvas_background" height="402" width="582" y="-1" x="-1"/>
 </g>
 <g>
  <title>Layer 1</title>
  <path fill="#ffffff" id="svg_1" d="m6.5,3a3.5,3.5 0 1 0 3.5,3.5a3.5,3.5 0 0 0 -3.5,-3.5zm0,5a1.5,1.5 0 1 1 1.5,-1.5a1.5,1.5 0 0 1 -1.5,1.5z"/>
  <path fill="#ffffff" id="svg_2" d="m9,11l-5,0a1,1 0 0 0 0,2l4,0l0,14l-3,0l0,-11a1,1 0 0 0 -2,0l0,12a1,1 0 0 0 1,1l5,0a1,1 0 0 0 1,-1l0,-16a1,1 0 0 0 -1,-1z"/>
  <path fill="#ffffff" id="svg_3" d="m27.383922,12.68a5.94,5.94 0 0 0 -4.34,-1.68l-1,0a7.84,7.84 0 0 0 -4,0.89a1,1 0 0 0 -1,-0.89l-5,0a1,1 0 0 0 -1,1l0,16a1,1 0 0 0 1,1l5,0a1,1 0 0 0 1,-1l0,-9a2,2 0 0 1 4,0l0,9a1,1 0 0 0 1,1l5,0a1,1 0 0 0 1,-1l0,-11a5.9,5.9 0 0 0 -1.66,-4.32zm-0.34,14.32l-3,0l0,-8a4,4 0 0 0 -8,0l0,8l-3,0l0,-14l3,0l0,1a1,1 0 0 0 0.62,0.92a1,1 0 0 0 1.09,-0.21c0.95,-1 1.7,-1.71 4.29,-1.71l1,0a4,4 0 0 1 2.92,1.09a4,4 0 0 1 1.08,2.91l0,10z"/>
 </g>
</svg>